<svg width="20" height="20" viewBox="0 0 20 20" fill="none" xmlns="http://www.w3.org/2000/svg">
<g clip-path="url(#clip0_120_657)">
<path d="M0.833313 3.33333V8.33333M0.833313 8.33333H5.83331M0.833313 8.33333L4.69998 4.7C5.85074 3.55118 7.34369 2.80748 8.95388 2.58093C10.5641 2.35439 12.2043 2.65728 13.6273 3.44397C15.0504 4.23066 16.1793 5.45854 16.8438 6.94258C17.5084 8.42663 17.6726 10.0865 17.3118 11.672C16.951 13.2575 16.0847 14.6828 14.8434 15.7331C13.6021 16.7835 12.0531 17.402 10.4297 17.4954C8.80638 17.5888 7.19663 17.1521 5.84303 16.2511C4.48943 15.3502 3.46531 14.0336 2.92498 12.5" stroke="#707070" stroke-width="2" stroke-linecap="round" stroke-linejoin="round"/>
</g>
<defs>
<clipPath id="clip0_120_657">
<rect width="20" height="20" fill="white"/>
</clipPath>
</defs>
</svg>
