<svg width="14" height="14" viewBox="0 0 14 14" fill="none" xmlns="http://www.w3.org/2000/svg">
<path d="M4.08332 6.41666L6.41666 1.16666C6.88079 1.16666 7.3259 1.35104 7.65409 1.67923C7.98228 2.00742 8.16666 2.45254 8.16666 2.91666V5.25H11.4683C11.6374 5.24808 11.8049 5.28296 11.9592 5.35221C12.1135 5.42146 12.2509 5.52343 12.3619 5.65105C12.4729 5.77867 12.5548 5.92889 12.6019 6.09131C12.6491 6.25373 12.6604 6.42446 12.635 6.59166L11.83 11.8417C11.7878 12.1199 11.6465 12.3734 11.4321 12.5557C11.2177 12.7379 10.9447 12.8365 10.6633 12.8333H4.08332M4.08332 6.41666V12.8333M4.08332 6.41666H2.33332C2.0239 6.41666 1.72716 6.53958 1.50837 6.75837C1.28957 6.97717 1.16666 7.27391 1.16666 7.58333V11.6667C1.16666 11.9761 1.28957 12.2728 1.50837 12.4916C1.72716 12.7104 2.0239 12.8333 2.33332 12.8333H4.08332" stroke="#5B5B5B" stroke-width="2" stroke-linecap="round" stroke-linejoin="round"/>
</svg>
